<svg width="11" height="11" viewBox="0.31475830078125 0.31475830078125 10.3704833984375 10.3704833984375" fill="none" xmlns="http://www.w3.org/2000/svg">
<path d="M0.24912 9.48256C-0.0807957 9.81248 -0.0875287 10.3982 0.255853 10.7416C0.605968 11.085 1.19174 11.0783 1.51492 10.7551L5.50084 6.76917L9.48003 10.7484C9.81668 11.085 10.3957 11.085 10.7391 10.7416C11.0825 10.3915 11.0825 9.81921 10.7458 9.48256L6.76664 5.50337L10.7458 1.51745C11.0825 1.1808 11.0892 0.601766 10.7391 0.258384C10.3957 -0.0849976 9.81668 -0.0849976 9.48003 0.251651L5.50084 4.23084L1.51492 0.251651C1.19174 -0.0782646 0.599235 -0.0917306 0.255853 0.258384C-0.0875287 0.601766 -0.0807957 1.19427 0.24912 1.51745L4.22831 5.50337L0.24912 9.48256Z" fill="#EBEBF5" fill-opacity="0.6"/>
</svg>
